<svg id="Layer_1" data-name="Layer 1" xmlns="http://www.w3.org/2000/svg" xmlns:xlink="http://www.w3.org/1999/xlink" viewBox="0 0 1821.88 256.63"><defs><style>.cls-1{fill:url(#linear-gradient);}.cls-2{fill:#e20a1a;}</style><linearGradient id="linear-gradient" x1="795.71" y1="445.84" x2="977.19" y2="623.93" gradientUnits="userSpaceOnUse"><stop offset="0" stop-color="#f6d403"/><stop offset="0.2" stop-color="#fede00"/><stop offset="0.36" stop-color="#d9a60f"/><stop offset="0.54" stop-color="#c78a15"/><stop offset="0.69" stop-color="#fede00"/><stop offset="0.86" stop-color="#dfac03"/><stop offset="1" stop-color="#fdeb01"/></linearGradient></defs><path class="cls-1" d="M949.78,523.44s24.32-9.61,19-41.27-51.07-33.36-51.07-33.36V411.68H895V447.3H877.79V411.68H856.12l-.66,36.19-44-.66-.76,23.55a159.74,159.74,0,0,1,17,0c10.56.47,11.45,11.88,11.45,11.88s-1.34,81.91-1.55,93.35-10.18,10.68-10.18,10.68L813.31,586l-5,26.15L852,613v37.69h25.81V614.37H895v36.28h22.8V614.84c37.7,0,62.38-15.83,63.13-51.45S949.78,523.44,949.78,523.44ZM876.28,473h14.14S928,471.9,928,495s-32.65,22-51.74,22Zm0,114.62V539.16H893s44.49-1.24,44.49,24.25S898.86,587.64,876.28,587.64Z" transform="translate(-49.06 -411.68)"/><path class="cls-2" d="M177.05,607.41q-18,8.7-46.94,8.7-37.77,0-59.41-22.21T49.06,534.71q0-39.38,24.33-63.88t63.13-24.5q24,0,40.53,6.07V488q-16.49-9.86-37.55-9.85-23.13,0-37.32,14.54T88,532.08q0,23.82,13.4,37.95t36.06,14.14a76.91,76.91,0,0,0,39.61-10.53Z" transform="translate(-49.06 -411.68)"/><path class="cls-2" d="M299.66,613.25H265.43V596.42H265q-11.79,19.7-34.91,19.69-17.07,0-26.85-9.67t-9.79-25.82q0-34.11,40.42-39.38L265.66,537q0-19.23-20.83-19.23T205,530.25V503q7.55-3.88,20.66-6.87a108.82,108.82,0,0,1,23.87-3q50.14,0,50.14,50Zm-34-47.62v-7.9l-21.29,2.74q-17.64,2.29-17.63,15.92A13.15,13.15,0,0,0,231,586.52q4.29,3.94,11.62,4a21.44,21.44,0,0,0,16.6-7Q265.65,576.38,265.66,565.63Z" transform="translate(-49.06 -411.68)"/><path class="cls-2" d="M320.61,610.16V580.85a77.21,77.21,0,0,0,17.81,8,59.15,59.15,0,0,0,16.77,2.63q9.62,0,15.16-2.63t5.56-8a7.41,7.41,0,0,0-2.52-5.72,23.38,23.38,0,0,0-6.47-4,74.73,74.73,0,0,0-8.64-3.09q-4.69-1.38-9-3.09a87.69,87.69,0,0,1-12.3-5.67,35.45,35.45,0,0,1-8.93-7,27.58,27.58,0,0,1-5.5-9.27,37,37,0,0,1-1.89-12.48,32,32,0,0,1,4.3-16.94,34.84,34.84,0,0,1,11.45-11.62,52,52,0,0,1,16.36-6.64,85,85,0,0,1,19.18-2.12,106.57,106.57,0,0,1,15.8,1.2,118.81,118.81,0,0,1,15.8,3.49v27.94a56.56,56.56,0,0,0-14.71-6,61.88,61.88,0,0,0-15.4-2,34.1,34.1,0,0,0-6.7.63,22.05,22.05,0,0,0-5.55,1.83,10.33,10.33,0,0,0-3.78,3.09,7.16,7.16,0,0,0-1.37,4.3,7.94,7.94,0,0,0,2.06,5.49,17.72,17.72,0,0,0,5.38,3.95,53.23,53.23,0,0,0,7.38,3c2.71.88,5.4,1.77,8.08,2.69a106.78,106.78,0,0,1,13.05,5.49,41.83,41.83,0,0,1,10,7,27.27,27.27,0,0,1,6.41,9.38,33.38,33.38,0,0,1,2.24,12.83q0,10.41-4.53,17.8a36.23,36.23,0,0,1-12,12A54.57,54.57,0,0,1,376.77,614a95.35,95.35,0,0,1-20.32,2.12A104.76,104.76,0,0,1,320.61,610.16Z" transform="translate(-49.06 -411.68)"/><path class="cls-2" d="M449.75,477.47q-9.17,0-15-5.44a17.52,17.52,0,0,1-5.84-13.33,16.9,16.9,0,0,1,5.84-13.28q5.85-5.16,15-5.15t15.05,5.15a17,17,0,0,1,5.79,13.28,17.45,17.45,0,0,1-5.79,13.51Q459,477.48,449.75,477.47Zm17.86,135.78H431.43V496h36.18Z" transform="translate(-49.06 -411.68)"/><path class="cls-2" d="M611.29,613.25H575.22V548.11q0-27.24-19.46-27.25a19.31,19.31,0,0,0-15.45,7.21q-6.07,7.21-6.07,18.32v66.86H498.06V496h36.18v18.55h.46q12.93-21.41,37.66-21.41,38.92,0,38.93,48.31Z" transform="translate(-49.06 -411.68)"/><path class="cls-2" d="M695.77,616.11q-29.29,0-46.08-16.42t-16.77-44.6q0-29.07,17.4-45.51t47.06-16.42q29.19,0,45.79,16.42T759.77,553q0,29.19-17.12,46.14T695.77,616.11Zm.92-95.25q-12.83,0-19.92,8.82t-7.1,25q0,33.78,27.25,33.78,26,0,26-34.69Q722.91,520.87,696.69,520.86Z" transform="translate(-49.06 -411.68)"/><path class="cls-2" d="M1016.56,477.47q-9.16,0-15-5.44a17.52,17.52,0,0,1-5.84-13.33,16.9,16.9,0,0,1,5.84-13.28q5.84-5.16,15-5.15t15,5.15a17,17,0,0,1,5.78,13.28,17.47,17.47,0,0,1-5.78,13.51Q1025.84,477.48,1016.56,477.47Zm17.86,135.78H998.24V496h36.18Z" transform="translate(-49.06 -411.68)"/><path class="cls-2" d="M1135.73,611.88q-8,4.23-24.15,4.23-38.25,0-38.24-39.72v-53.7h-19V496h19v-25.3l36.06-10.3V496h26.33v26.67H1109.4v47.4q0,18.31,14.54,18.32a24.52,24.52,0,0,0,11.79-3.32Z" transform="translate(-49.06 -411.68)"/><path class="cls-2" d="M1297.38,613.25h-42.47L1229.38,571q-2.87-4.82-5.5-8.59a47.28,47.28,0,0,0-5.32-6.47,21,21,0,0,0-5.61-4.12,14.29,14.29,0,0,0-6.35-1.43h-10v62.85h-37V449.08h58.61q59.77,0,59.77,44.65a46.08,46.08,0,0,1-2.64,15.85,43.77,43.77,0,0,1-7.44,13.11,46.87,46.87,0,0,1-11.62,10.08,60,60,0,0,1-15.17,6.64v.46a23.43,23.43,0,0,1,7.1,3.72,50.45,50.45,0,0,1,6.64,6A84.48,84.48,0,0,1,1261,557q2.91,4,5.32,7.73ZM1196.64,476.79v45.68h16q11.89,0,19.11-6.87a22.92,22.92,0,0,0,7.33-17.29q0-21.53-25.76-21.52Z" transform="translate(-49.06 -411.68)"/><path class="cls-2" d="M1359.2,616.11q-29.31,0-46.08-16.42t-16.77-44.6q0-29.07,17.4-45.51t47.06-16.42q29.19,0,45.79,16.42T1423.2,553q0,29.19-17.12,46.14T1359.2,616.11Zm.92-95.25q-12.82,0-19.92,8.82t-7.1,25q0,33.78,27.25,33.78,26,0,26-34.69Q1386.34,520.87,1360.12,520.86Z" transform="translate(-49.06 -411.68)"/><path class="cls-2" d="M1558.29,496l-47.63,126.62q-17.16,45.68-51.74,45.68-13.17,0-21.64-3V636.49a30.49,30.49,0,0,0,15.69,4.24q14,0,19.46-13.17l6.18-14.54L1431,496h40.07l21.87,71.32a93.84,93.84,0,0,1,3.21,15.69h.45a110.11,110.11,0,0,1,3.78-15.46l22.1-71.55Z" transform="translate(-49.06 -411.68)"/><path class="cls-2" d="M1670.37,613.25h-34.23V596.42h-.46q-11.79,19.7-34.92,19.69-17.05,0-26.84-9.67t-9.79-25.82q0-34.11,40.41-39.38l31.83-4.24q0-19.23-20.84-19.23t-39.84,12.48V503q7.56-3.88,20.66-6.87a108.91,108.91,0,0,1,23.88-3q50.14,0,50.14,50Zm-34-47.62v-7.9l-21.3,2.74q-17.62,2.29-17.63,15.92a13.12,13.12,0,0,0,4.3,10.13q4.29,3.94,11.62,4a21.44,21.44,0,0,0,16.6-7Q1636.37,576.38,1636.37,565.63Z" transform="translate(-49.06 -411.68)"/><path class="cls-2" d="M1735.16,613.25H1699V439.69h36.17Z" transform="translate(-49.06 -411.68)"/><path class="cls-2" d="M1870.94,564.94h-76.47q1.83,25.53,32.17,25.53,19.33,0,34-9.16v26.1q-16.26,8.7-42.24,8.7-28.39,0-44.08-15.74t-15.68-43.9q0-29.21,16.94-46.25t41.67-17.06q25.65,0,39.67,15.22t14,41.33Zm-33.54-22.21q0-25.18-20.38-25.19-8.7,0-15,7.21a32.78,32.78,0,0,0-7.73,18Z" transform="translate(-49.06 -411.68)"/></svg>